{
    "asset" : {
        "generator" : "Khronos glTF Blender I/O v1.8.19",
        "version" : "2.0"
    },
    "scene" : 0,
    "scenes" : [
        {
            "name" : "Scene",
            "nodes" : [
                0
            ]
        }
    ],
    "nodes" : [
        {
            "mesh" : 0,
            "name" : "craft_speederC",
            "rotation" : [
                0.7071068286895752,
                0,
                0,
                0.7071067094802856
            ]
        }
    ],
    "materials" : [
        {
            "doubleSided" : true,
            "name" : "metalRed",
            "pbrMetallicRoughness" : {
                "baseColorFactor" : [
                    1,
                    0.6285240054130554,
                    0.2028300017118454,
                    1
                ],
                "metallicFactor" : 0,
                "roughnessFactor" : 0.5
            }
        },
        {
            "doubleSided" : true,
            "name" : "metalDark",
            "pbrMetallicRoughness" : {
                "baseColorFactor" : [
                    0.6750620007514954,
                    0.71002197265625,
                    0.7735850214958191,
                    1
                ],
                "metallicFactor" : 0,
                "roughnessFactor" : 0.5
            }
        },
        {
            "doubleSided" : true,
            "name" : "metal",
            "pbrMetallicRoughness" : {
                "baseColorFactor" : [
                    0.8431370258331299,
                    0.8705880045890808,
                    0.9098039865493774,
                    1
                ],
                "metallicFactor" : 0,
                "roughnessFactor" : 0.5
            }
        },
        {
            "doubleSided" : true,
            "name" : "dark",
            "pbrMetallicRoughness" : {
                "baseColorFactor" : [
                    0.274509996175766,
                    0.2980389893054962,
                    0.34117600321769714,
                    1
                ],
                "metallicFactor" : 0,
                "roughnessFactor" : 0.5
            }
        }
    ],
    "meshes" : [
        {
            "name" : "ID11",
            "primitives" : [
                {
                    "attributes" : {
                        "POSITION" : 0,
                        "NORMAL" : 1,
                        "TEXCOORD_0" : 2
                    },
                    "indices" : 3,
                    "material" : 0
                },
                {
                    "attributes" : {
                        "POSITION" : 4,
                        "NORMAL" : 5,
                        "TEXCOORD_0" : 6
                    },
                    "indices" : 7,
                    "material" : 1
                },
                {
                    "attributes" : {
                        "POSITION" : 8,
                        "NORMAL" : 9,
                        "TEXCOORD_0" : 10
                    },
                    "indices" : 11,
                    "material" : 2
                },
                {
                    "attributes" : {
                        "POSITION" : 12,
                        "NORMAL" : 13,
                        "TEXCOORD_0" : 14
                    },
                    "indices" : 15,
                    "material" : 3
                }
            ]
        }
    ],
    "accessors" : [
        {
            "bufferView" : 0,
            "componentType" : 5126,
            "count" : 56,
            "max" : [
                1.399999976158142,
                0.9628350138664246,
                0
            ],
            "min" : [
                -1.399999976158142,
                -0.36283499002456665,
                -0.6000000238418579
            ],
            "type" : "VEC3"
        },
        {
            "bufferView" : 1,
            "componentType" : 5126,
            "count" : 56,
            "type" : "VEC3"
        },
        {
            "bufferView" : 2,
            "componentType" : 5126,
            "count" : 56,
            "type" : "VEC2"
        },
        {
            "bufferView" : 3,
            "componentType" : 5123,
            "count" : 90,
            "type" : "SCALAR"
        },
        {
            "bufferView" : 4,
            "componentType" : 5126,
            "count" : 307,
            "max" : [
                0.800000011920929,
                0.4371649920940399,
                0
            ],
            "min" : [
                -0.800000011920929,
                -0.9628350138664246,
                -0.6000000238418579
            ],
            "type" : "VEC3"
        },
        {
            "bufferView" : 5,
            "componentType" : 5126,
            "count" : 307,
            "type" : "VEC3"
        },
        {
            "bufferView" : 6,
            "componentType" : 5126,
            "count" : 307,
            "type" : "VEC2"
        },
        {
            "bufferView" : 7,
            "componentType" : 5123,
            "count" : 432,
            "type" : "SCALAR"
        },
        {
            "bufferView" : 8,
            "componentType" : 5126,
            "count" : 150,
            "max" : [
                1.399999976158142,
                0.03716500103473663,
                0
            ],
            "min" : [
                -1.399999976158142,
                -0.9628350138664246,
                -0.6000000238418579
            ],
            "type" : "VEC3"
        },
        {
            "bufferView" : 9,
            "componentType" : 5126,
            "count" : 150,
            "type" : "VEC3"
        },
        {
            "bufferView" : 10,
            "componentType" : 5126,
            "count" : 150,
            "type" : "VEC2"
        },
        {
            "bufferView" : 11,
            "componentType" : 5123,
            "count" : 240,
            "type" : "SCALAR"
        },
        {
            "bufferView" : 12,
            "componentType" : 5126,
            "count" : 90,
            "max" : [
                0.5292890071868896,
                0.9628350138664246,
                -0.10000000149011612
            ],
            "min" : [
                -0.5292890071868896,
                -0.9628350138664246,
                -0.5900499820709229
            ],
            "type" : "VEC3"
        },
        {
            "bufferView" : 13,
            "componentType" : 5126,
            "count" : 90,
            "type" : "VEC3"
        },
        {
            "bufferView" : 14,
            "componentType" : 5126,
            "count" : 90,
            "type" : "VEC2"
        },
        {
            "bufferView" : 15,
            "componentType" : 5123,
            "count" : 114,
            "type" : "SCALAR"
        }
    ],
    "bufferViews" : [
        {
            "buffer" : 0,
            "byteLength" : 672,
            "byteOffset" : 0
        },
        {
            "buffer" : 0,
            "byteLength" : 672,
            "byteOffset" : 672
        },
        {
            "buffer" : 0,
            "byteLength" : 448,
            "byteOffset" : 1344
        },
        {
            "buffer" : 0,
            "byteLength" : 180,
            "byteOffset" : 1792
        },
        {
            "buffer" : 0,
            "byteLength" : 3684,
            "byteOffset" : 1972
        },
        {
            "buffer" : 0,
            "byteLength" : 3684,
            "byteOffset" : 5656
        },
        {
            "buffer" : 0,
            "byteLength" : 2456,
            "byteOffset" : 9340
        },
        {
            "buffer" : 0,
            "byteLength" : 864,
            "byteOffset" : 11796
        },
        {
            "buffer" : 0,
            "byteLength" : 1800,
            "byteOffset" : 12660
        },
        {
            "buffer" : 0,
            "byteLength" : 1800,
            "byteOffset" : 14460
        },
        {
            "buffer" : 0,
            "byteLength" : 1200,
            "byteOffset" : 16260
        },
        {
            "buffer" : 0,
            "byteLength" : 480,
            "byteOffset" : 17460
        },
        {
            "buffer" : 0,
            "byteLength" : 1080,
            "byteOffset" : 17940
        },
        {
            "buffer" : 0,
            "byteLength" : 1080,
            "byteOffset" : 19020
        },
        {
            "buffer" : 0,
            "byteLength" : 720,
            "byteOffset" : 20100
        },
        {
            "buffer" : 0,
            "byteLength" : 228,
            "byteOffset" : 20820
        }
    ],
    "buffers" : [
        {
            "byteLength" : 21048,
            "uri" : "data:application/octet-stream;base64,"
        }
    ]
}
